<svg width="234" height="48" viewBox="0 0 234 48" fill="none" xmlns="http://www.w3.org/2000/svg">
<path d="M41 26.5343C32.0994 25.2628 22.8103 29.8897 19.2783 32.3621L24.0464 34.8786C27.861 30.1104 36.9382 28.4769 41 28.2561V26.5343Z" fill="#2FB56E"/>
<path d="M41 29.1833C33.159 29.3952 27.1369 33.2451 25.106 35.1435L27.6226 37.2627C30.8014 33.6601 37.8654 31.6998 41 31.17V29.1833Z" fill="#2FB56E"/>
<path d="M41 34.3488V31.6998C34.7484 33.0773 30.095 36.6005 28.5497 38.1899L31.861 41.3687C32.5232 41.4128 33.9802 41.0773 34.51 39.3819C35.0398 37.6866 39.0574 35.3201 41 34.3488Z" fill="#2FB56E"/>
<path d="M20.9999 47.328L1 35.0102C2.81015 35.3192 7.09268 35.0101 11.9933 38.189C16.894 41.3678 19.852 45.0322 20.9999 47.328Z" fill="#2FB56E"/>
<path d="M31.8608 41.5017C21.1588 29.3163 6.82779 29.0955 1 30.5083V31.9653C13.7152 30.5878 23.9579 39.1617 27.4899 43.6209L31.8608 41.5017Z" fill="#2FB56E"/>
<path d="M26.4303 44.0174C15.8344 34.216 7.09268 31.8319 1 32.6267V34.2161C11.7284 33.8187 19.4547 41.6774 22.9866 46.1365L26.4303 44.0174Z" fill="#2FB56E"/>
<path d="M15.8885 21.7842C17.0602 22.7428 16.5543 20.4971 16.1548 19.2544C17.5395 20.213 17.2644 21.9617 16.9537 22.7162C17.4419 22.6274 18.2319 21.8374 17.4863 19.3875C16.5543 16.3252 12.0273 16.3252 13.2256 16.9909C14.4239 17.6566 14.4239 20.5859 15.8885 21.7842Z" fill="#2FB56E"/>
<path d="M33.1975 23.2501C20.8414 15.5808 16.2435 24.4928 15.489 29.9074H17.6193C17.0867 23.9424 22.457 21.8298 25.2087 21.5192C23.6553 22.3181 20.8148 23.6495 20.4154 24.5816C19.9703 25.62 23.3446 27.9102 26.2738 25.2473C28.6172 23.1169 31.5109 23.3388 33.1975 23.2501Z" fill="#2FB56E"/>
<path d="M1.58526 12.7249L1.28139 12.9047V13.2578V35.4359V35.7958L1.59405 35.9739L20.9577 47.0067L21.266 47.1823L21.5734 47.0051L40.7119 35.9723L41.0219 35.7937V35.4359V13.2578V12.9005L40.7125 12.7217L21.2363 1.46381L20.9228 1.28258L20.6111 1.46699L1.58526 12.7249Z" stroke="#2FB56E" stroke-width="1.23837"/>
<circle cx="22.9531" cy="12.6949" r="4.39059" fill="#EAD838"/>
<path d="M11.3617 25.9119C15.4893 26.8438 13.4033 23.7372 11.3617 22.317C13.9182 22.9562 15.0455 25.6012 15.3561 26.7107C14.4241 21.1185 11.7612 20.4528 9.09825 20.3197C6.96791 20.2132 5.81397 21.296 5.5033 21.9174C8.69881 22.0506 9.89713 25.3792 11.3617 25.9119Z" fill="#2FB56E"/>
<path d="M59.524 23.8841H68.932V27.5241H59.524V23.8841ZM59.86 34.6641H55.324V15.0641H70.136V18.7041H59.86V34.6641ZM81.7287 34.6641V31.7241L81.4487 31.0801V25.8161C81.4487 24.8827 81.1593 24.1547 80.5807 23.6321C80.0207 23.1094 79.1527 22.8481 77.9767 22.8481C77.174 22.8481 76.3807 22.9787 75.5967 23.2401C74.8313 23.4827 74.178 23.8187 73.6367 24.2481L72.0687 21.1961C72.89 20.6174 73.8793 20.1694 75.0367 19.8521C76.194 19.5347 77.37 19.3761 78.5647 19.3761C80.8607 19.3761 82.6433 19.9174 83.9127 21.0001C85.182 22.0827 85.8167 23.7721 85.8167 26.0681V34.6641H81.7287ZM77.1367 34.8881C75.9607 34.8881 74.9527 34.6921 74.1127 34.3001C73.2727 33.8894 72.6287 33.3387 72.1807 32.6481C71.7327 31.9574 71.5087 31.1827 71.5087 30.3241C71.5087 29.4281 71.7233 28.6441 72.1527 27.9721C72.6007 27.3001 73.3007 26.7774 74.2527 26.4041C75.2047 26.0121 76.446 25.8161 77.9767 25.8161H81.9807V28.3641H78.4527C77.426 28.3641 76.7167 28.5321 76.3247 28.8681C75.9513 29.2041 75.7647 29.6241 75.7647 30.1281C75.7647 30.6881 75.9793 31.1361 76.4087 31.4721C76.8567 31.7894 77.4633 31.9481 78.2287 31.9481C78.9567 31.9481 79.61 31.7801 80.1887 31.4441C80.7673 31.0894 81.1873 30.5761 81.4487 29.9041L82.1207 31.9201C81.8033 32.8907 81.2247 33.6281 80.3847 34.1321C79.5447 34.6361 78.462 34.8881 77.1367 34.8881ZM89.7699 34.6641V19.6001H93.9419V23.8561L93.3539 22.6241C93.8019 21.5601 94.5206 20.7574 95.5099 20.2161C96.4992 19.6561 97.7032 19.3761 99.1219 19.3761V23.4081C98.9352 23.3894 98.7672 23.3801 98.6179 23.3801C98.4686 23.3614 98.3099 23.3521 98.1419 23.3521C96.9472 23.3521 95.9766 23.6974 95.2299 24.3881C94.5019 25.0601 94.1379 26.1147 94.1379 27.5521V34.6641H89.7699ZM121.011 19.3761C122.206 19.3761 123.26 19.6187 124.175 20.1041C125.108 20.5707 125.836 21.2987 126.359 22.2881C126.9 23.2587 127.171 24.5094 127.171 26.0401V34.6641H122.803V26.7121C122.803 25.4987 122.551 24.6027 122.047 24.0241C121.543 23.4454 120.834 23.1561 119.919 23.1561C119.284 23.1561 118.715 23.3054 118.211 23.6041C117.707 23.8841 117.315 24.3134 117.035 24.8921C116.755 25.4707 116.615 26.2081 116.615 27.1041V34.6641H112.247V26.7121C112.247 25.4987 111.995 24.6027 111.491 24.0241C111.006 23.4454 110.306 23.1561 109.391 23.1561C108.756 23.1561 108.187 23.3054 107.683 23.6041C107.179 23.8841 106.787 24.3134 106.507 24.8921C106.227 25.4707 106.087 26.2081 106.087 27.1041V34.6641H101.719V19.6001H105.891V23.7161L105.107 22.5121C105.63 21.4854 106.367 20.7107 107.319 20.1881C108.29 19.6467 109.391 19.3761 110.623 19.3761C112.004 19.3761 113.208 19.7307 114.235 20.4401C115.28 21.1307 115.971 22.1947 116.307 23.6321L114.767 23.2121C115.271 22.0361 116.074 21.1027 117.175 20.4121C118.295 19.7214 119.574 19.3761 121.011 19.3761ZM138.672 34.8881C136.954 34.8881 135.442 34.5521 134.136 33.8801C132.848 33.2081 131.849 32.2934 131.14 31.1361C130.43 29.9601 130.076 28.6254 130.076 27.1321C130.076 25.6201 130.421 24.2854 131.112 23.1281C131.821 21.9521 132.782 21.0374 133.996 20.3841C135.209 19.7121 136.581 19.3761 138.112 19.3761C139.586 19.3761 140.912 19.6934 142.088 20.3281C143.282 20.9441 144.225 21.8401 144.916 23.0161C145.606 24.1734 145.952 25.5641 145.952 27.1881C145.952 27.3561 145.942 27.5521 145.924 27.7761C145.905 27.9814 145.886 28.1774 145.868 28.3641H133.632V25.8161H143.572L141.892 26.5721C141.892 25.7881 141.733 25.1067 141.416 24.5281C141.098 23.9494 140.66 23.5014 140.1 23.1841C139.54 22.8481 138.886 22.6801 138.14 22.6801C137.393 22.6801 136.73 22.8481 136.152 23.1841C135.592 23.5014 135.153 23.9587 134.836 24.5561C134.518 25.1347 134.36 25.8254 134.36 26.6281V27.3001C134.36 28.1214 134.537 28.8494 134.892 29.4841C135.265 30.1001 135.778 30.5761 136.432 30.9121C137.104 31.2294 137.888 31.3881 138.784 31.3881C139.586 31.3881 140.286 31.2667 140.884 31.0241C141.5 30.7814 142.06 30.4174 142.564 29.9321L144.888 32.4521C144.197 33.2361 143.329 33.8427 142.284 34.2721C141.238 34.6827 140.034 34.8881 138.672 34.8881ZM148.86 34.6641V19.6001H153.032V23.8561L152.444 22.6241C152.892 21.5601 153.61 20.7574 154.6 20.2161C155.589 19.6561 156.793 19.3761 158.212 19.3761V23.4081C158.025 23.3894 157.857 23.3801 157.708 23.3801C157.558 23.3614 157.4 23.3521 157.232 23.3521C156.037 23.3521 155.066 23.6974 154.32 24.3881C153.592 25.0601 153.228 26.1147 153.228 27.5521V34.6641H148.86ZM161.035 34.6641V15.0641H169.939C172.067 15.0641 173.943 15.4747 175.567 16.2961C177.191 17.0987 178.46 18.2281 179.375 19.6841C180.29 21.1401 180.747 22.8667 180.747 24.8641C180.747 26.8427 180.29 28.5694 179.375 30.0441C178.46 31.5001 177.191 32.6387 175.567 33.4601C173.943 34.2627 172.067 34.6641 169.939 34.6641H161.035ZM165.571 30.9401H169.715C171.022 30.9401 172.151 30.6974 173.103 30.2121C174.074 29.7081 174.82 28.9987 175.343 28.0841C175.884 27.1694 176.155 26.0961 176.155 24.8641C176.155 23.6134 175.884 22.5401 175.343 21.6441C174.82 20.7294 174.074 20.0294 173.103 19.5441C172.151 19.0401 171.022 18.7881 169.715 18.7881H165.571V30.9401ZM191.336 34.8881C189.618 34.8881 188.106 34.5521 186.8 33.8801C185.512 33.2081 184.513 32.2934 183.804 31.1361C183.094 29.9601 182.74 28.6254 182.74 27.1321C182.74 25.6201 183.085 24.2854 183.776 23.1281C184.485 21.9521 185.446 21.0374 186.66 20.3841C187.873 19.7121 189.245 19.3761 190.776 19.3761C192.25 19.3761 193.576 19.6934 194.752 20.3281C195.946 20.9441 196.889 21.8401 197.58 23.0161C198.27 24.1734 198.616 25.5641 198.616 27.1881C198.616 27.3561 198.606 27.5521 198.588 27.7761C198.569 27.9814 198.55 28.1774 198.532 28.3641H186.296V25.8161H196.236L194.556 26.5721C194.556 25.7881 194.397 25.1067 194.08 24.5281C193.762 23.9494 193.324 23.5014 192.764 23.1841C192.204 22.8481 191.55 22.6801 190.804 22.6801C190.057 22.6801 189.394 22.8481 188.816 23.1841C188.256 23.5014 187.817 23.9587 187.5 24.5561C187.182 25.1347 187.024 25.8254 187.024 26.6281V27.3001C187.024 28.1214 187.201 28.8494 187.556 29.4841C187.929 30.1001 188.442 30.5761 189.096 30.9121C189.768 31.2294 190.552 31.3881 191.448 31.3881C192.25 31.3881 192.95 31.2667 193.548 31.0241C194.164 30.7814 194.724 30.4174 195.228 29.9321L197.552 32.4521C196.861 33.2361 195.993 33.8427 194.948 34.2721C193.902 34.6827 192.698 34.8881 191.336 34.8881ZM210.68 19.3761C211.874 19.3761 212.938 19.6187 213.872 20.1041C214.824 20.5707 215.57 21.2987 216.112 22.2881C216.653 23.2587 216.924 24.5094 216.924 26.0401V34.6641H212.556V26.7121C212.556 25.4987 212.285 24.6027 211.744 24.0241C211.221 23.4454 210.474 23.1561 209.504 23.1561C208.813 23.1561 208.188 23.3054 207.628 23.6041C207.086 23.8841 206.657 24.3227 206.34 24.9201C206.041 25.5174 205.892 26.2827 205.892 27.2161V34.6641H201.524V19.6001H205.696V23.7721L204.912 22.5121C205.453 21.5041 206.228 20.7294 207.236 20.1881C208.244 19.6467 209.392 19.3761 210.68 19.3761ZM225.951 34.8881C224.663 34.8881 223.422 34.7387 222.227 34.4401C221.051 34.1227 220.118 33.7307 219.427 33.2641L220.883 30.1281C221.574 30.5574 222.386 30.9121 223.319 31.1921C224.271 31.4534 225.205 31.5841 226.119 31.5841C227.127 31.5841 227.837 31.4627 228.247 31.2201C228.677 30.9774 228.891 30.6414 228.891 30.2121C228.891 29.8574 228.723 29.5961 228.387 29.4281C228.07 29.2414 227.641 29.1014 227.099 29.0081C226.558 28.9147 225.961 28.8214 225.307 28.7281C224.673 28.6347 224.029 28.5134 223.375 28.3641C222.722 28.1961 222.125 27.9534 221.583 27.6361C221.042 27.3187 220.603 26.8894 220.267 26.3481C219.95 25.8067 219.791 25.1067 219.791 24.2481C219.791 23.2961 220.062 22.4561 220.603 21.7281C221.163 21.0001 221.966 20.4307 223.011 20.0201C224.057 19.5907 225.307 19.3761 226.763 19.3761C227.79 19.3761 228.835 19.4881 229.899 19.7121C230.963 19.9361 231.85 20.2627 232.559 20.6921L231.103 23.8001C230.375 23.3707 229.638 23.0814 228.891 22.9321C228.163 22.7641 227.454 22.6801 226.763 22.6801C225.793 22.6801 225.083 22.8107 224.635 23.0721C224.187 23.3334 223.963 23.6694 223.963 24.0801C223.963 24.4534 224.122 24.7334 224.439 24.9201C224.775 25.1067 225.214 25.2561 225.755 25.3681C226.297 25.4801 226.885 25.5827 227.519 25.6761C228.173 25.7507 228.826 25.8721 229.479 26.0401C230.133 26.2081 230.721 26.4507 231.243 26.7681C231.785 27.0667 232.223 27.4867 232.559 28.0281C232.895 28.5507 233.063 29.2414 233.063 30.1001C233.063 31.0334 232.783 31.8641 232.223 32.5921C231.663 33.3014 230.851 33.8614 229.787 34.2721C228.742 34.6827 227.463 34.8881 225.951 34.8881Z" fill="black"/>
</svg>
